<svg xmlns="http://www.w3.org/2000/svg" width="128" height="128" viewBox="0 0 128 128">
  <defs>
    <linearGradient id="bg" x1="18" y1="12" x2="112" y2="116" gradientUnits="userSpaceOnUse">
      <stop offset="0" stop-color="#f6cf16"/>
      <stop offset="1" stop-color="#d79f00"/>
    </linearGradient>
    <linearGradient id="body" x1="44" y1="28" x2="87" y2="100" gradientUnits="userSpaceOnUse">
      <stop offset="0" stop-color="#f8fbff"/>
      <stop offset="1" stop-color="#cfd9e6"/>
    </linearGradient>
    <linearGradient id="accent" x1="64" y1="35" x2="64" y2="92" gradientUnits="userSpaceOnUse">
      <stop offset="0" stop-color="#ffd84d"/>
      <stop offset="1" stop-color="#f2ba00"/>
    </linearGradient>
  </defs>

  <rect x="10" y="10" width="108" height="108" rx="28" fill="url(#bg)"/>
  <path d="M18 86C31 97 47 103 64 103c21 0 40-9 54-24v11c-14 15-33 24-54 24-18 0-35-6-49-18z" fill="#fff5b5" opacity="0.34"/>

  <g opacity="0.22">
    <rect x="39" y="29" width="50" height="80" rx="16" fill="#6c5200"/>
    <rect x="49" y="21" width="30" height="20" rx="8" fill="#6c5200"/>
    <rect x="49" y="89" width="30" height="6" rx="3" fill="#6c5200"/>
  </g>

  <g>
    <rect x="39" y="24" width="50" height="80" rx="16" fill="url(#body)"/>
    <rect x="49" y="16" width="30" height="20" rx="8" fill="#c8d2de"/>
    <rect x="52" y="18" width="8" height="12" rx="2" fill="#7b8da1"/>
    <rect x="68" y="18" width="8" height="12" rx="2" fill="#7b8da1"/>
    <rect x="49" y="42" width="30" height="36" rx="10" fill="url(#accent)"/>
    <path d="M64 49l11 12h-7v14h-8V61h-7z" fill="#ffffff"/>
    <rect x="49" y="84" width="30" height="6" rx="3" fill="#adb9c8"/>
  </g>

  <circle cx="95" cy="95" r="15" fill="#fffdf4" opacity="0.96"/>
  <path d="M95 86l7 8h-4v8h-6v-8h-4z" fill="#d7a000"/>
</svg>
